<mxfile host="app.diagrams.net" modified="2024-02-20T06:16:46.566Z" agent="Mozilla/5.0 (Windows NT 10.0; Win64; x64) AppleWebKit/537.36 (KHTML, like Gecko) Chrome/121.0.0.0 Safari/537.36 Edg/121.0.0.0" version="23.1.5" etag="I-L49HGmrUmkh3cF7i8X" type="github">
  <diagram name="PÃ¡gina-1" id="gxeQD0x4eUGnnFN3Jlsu">
    <mxGraphModel>
      <root>
        <mxCell id="0" />
        <mxCell id="1" parent="0" />
      </root>
    </mxGraphModel>
  </diagram>
</mxfile>
